<mxfile host="app.diagrams.net" modified="2024-04-22T19:35:35.590Z" agent="Mozilla/5.0 (Macintosh; Intel Mac OS X 10_15_7) AppleWebKit/537.36 (KHTML, like Gecko) Chrome/124.0.0.0 Safari/537.36" version="24.2.7" etag="XeCUHF4aBeABZiUwGQv6" type="github">
  <diagram name="Page-1" id="eySKwO89GjfD3HOkO44L">
    <mxGraphModel>
      <root>
        <mxCell id="0" />
        <mxCell id="1" parent="0" />
      </root>
    </mxGraphModel>
  </diagram>
</mxfile>
